<?xml version="1.0" encoding="UTF-8" standalone="no"?>
<svg
   xmlns:dc="http://purl.org/dc/elements/1.1/"
   xmlns:cc="http://creativecommons.org/ns#"
   xmlns:rdf="http://www.w3.org/1999/02/22-rdf-syntax-ns#"
   xmlns:svg="http://www.w3.org/2000/svg"
   xmlns="http://www.w3.org/2000/svg"
   xmlns:sodipodi="http://sodipodi.sourceforge.net/DTD/sodipodi-0.dtd"
   xmlns:inkscape="http://www.inkscape.org/namespaces/inkscape"
   width="210mm"
   height="297mm"
   viewBox="0 0 210 297"
   version="1.1"
   id="svg8"
   sodipodi:docname="zone.svg"
   inkscape:version="1.0.2 (e86c870879, 2021-01-15)">
  <defs
     id="defs2">
    <filter
       inkscape:collect="always"
       style="color-interpolation-filters:sRGB"
       id="filter1504"
       x="-0.11554076"
       width="1.2310815"
       y="-0.087914598"
       height="1.1758292">
      <feGaussianBlur
         inkscape:collect="always"
         stdDeviation="1.2569259"
         id="feGaussianBlur1506" />
    </filter>
    <mask
       maskUnits="userSpaceOnUse"
       id="mask1713">
      <rect
         style="font-variation-settings:normal;opacity:1;vector-effect:none;fill:#ffffff;fill-opacity:1;stroke:none;stroke-width:0.264583px;stroke-linecap:butt;stroke-linejoin:miter;stroke-miterlimit:4;stroke-dasharray:none;stroke-dashoffset:0;stroke-opacity:1;stop-color:#000000;stop-opacity:1"
         id="rect1715"
         width="87.312492"
         height="87.312508"
         x="167.06548"
         y="41.766361" />
    </mask>
    <filter
       inkscape:collect="always"
       style="color-interpolation-filters:sRGB"
       id="filter1535"
       x="-0.073869218"
       width="1.1477384"
       y="-0.35696328"
       height="1.7139266">
      <feGaussianBlur
         inkscape:collect="always"
         stdDeviation="2.344201"
         id="feGaussianBlur1537" />
    </filter>
    <filter
       inkscape:collect="always"
       style="color-interpolation-filters:sRGB"
       id="filter1539"
       x="-0.066259895"
       width="1.1325198"
       y="-0.45693995"
       height="1.9138799">
      <feGaussianBlur
         inkscape:collect="always"
         stdDeviation="2.2170947"
         id="feGaussianBlur1541" />
    </filter>
  </defs>
  <sodipodi:namedview
     id="base"
     pagecolor="#ffffff"
     bordercolor="#666666"
     borderopacity="1.0"
     inkscape:pageopacity="0.0"
     inkscape:pageshadow="2"
     inkscape:zoom="0.63"
     inkscape:cx="491.3988"
     inkscape:cy="446.34938"
     inkscape:document-units="px"
     inkscape:current-layer="g1711"
     inkscape:document-rotation="0"
     showgrid="false"
     inkscape:window-width="1520"
     inkscape:window-height="791"
     inkscape:window-x="42"
     inkscape:window-y="180"
     inkscape:window-maximized="0" />
  <metadata
     id="metadata5">
    <rdf:RDF>
      <cc:Work
         rdf:about="">
        <dc:format>image/svg+xml</dc:format>
        <dc:type
           rdf:resource="http://purl.org/dc/dcmitype/StillImage" />
        <dc:title />
      </cc:Work>
    </rdf:RDF>
  </metadata>
  <g
     inkscape:label="Calque 1"
     inkscape:groupmode="layer"
     id="layer1">
    <rect
       style="fill:#cccccc;stroke-width:4.049;stroke-linejoin:bevel;stop-color:#000000"
       id="rect835"
       width="87.3125"
       height="87.3125"
       x="80.256943"
       y="138.78026" />
    <rect
       style="fill:#808080;stroke-width:4.049;stroke-linejoin:bevel;stop-color:#000000"
       id="rect837"
       width="78.619049"
       height="78.619049"
       x="84.603668"
       y="143.12698" />
    <path
       style="fill:#999999;stroke:#333333;stroke-width:0.264583px;stroke-linecap:butt;stroke-linejoin:bevel;stroke-opacity:1"
       d="m 84.60367,143.12698 -4.346726,-4.34672 87.312506,0 -4.34672,4.34672 z"
       id="path839" />
    <path
       style="fill:#4d4d4d;stroke:#333333;stroke-width:0.264583px;stroke-linecap:butt;stroke-linejoin:bevel;stroke-opacity:1"
       d="m 163.22273,143.12698 4.34672,-4.34673 v 87.31251 l -4.34672,-4.34672 z"
       id="path841" />
    <path
       style="fill:#666666;stroke:#333333;stroke-width:0.264583px;stroke-linecap:butt;stroke-linejoin:bevel;stroke-opacity:1"
       d="m 163.22272,221.74603 4.34673,4.34672 H 80.256944 l 4.34672,-4.34672 z"
       id="path843" />
    <path
       style="fill:#808080;stroke:#333333;stroke-width:0.264583px;stroke-linecap:butt;stroke-linejoin:bevel;stroke-opacity:1"
       d="m 84.603664,221.74603 -4.34672,4.34673 v -87.31251 l 4.34672,4.34672 z"
       id="path845" />
    <g
       id="g1711"
       mask="url(#mask1713)"
       transform="matrix(1.2121211,0,0,1.2121211,-202.50359,-50.625891)"
       style="stroke-width:1.28906"
       inkscape:export-filename="..\optics\Assets\Images\zone.png"
       inkscape:export-xdpi="96.000023"
       inkscape:export-ydpi="96.000023">
      <rect
         style="fill:#cccccc;stroke:none;stroke-width:5.21942;stroke-linejoin:bevel;stop-color:#000000"
         id="rect847"
         width="87.3125"
         height="87.3125"
         x="167.06548"
         y="41.766369" />
      <g
         id="zone"
         style="stroke-width:1.28906">
        <rect
           style="fill:#808080;stroke:none;stroke-width:5.21942;stroke-linejoin:bevel;stop-color:#000000"
           id="rect849"
           width="85.033516"
           height="85.033516"
           x="168.20496"
           y="42.905857" />
        <path
           style="fill:#999999;stroke:none;stroke-width:0.341064px;stroke-linecap:butt;stroke-linejoin:bevel;stroke-opacity:1"
           d="m 168.20496,42.905857 -1.13948,-1.139489 87.3125,10e-7 -1.13952,1.139488 z"
           id="path851"
           sodipodi:nodetypes="ccccc" />
        <path
           style="fill:#4d4d4d;stroke:none;stroke-width:0.341064px;stroke-linecap:butt;stroke-linejoin:bevel;stroke-opacity:1"
           d="m 253.23846,42.905857 1.13952,-1.139494 v 87.312507 l -1.13952,-1.13949 z"
           id="path853"
           sodipodi:nodetypes="ccccc" />
        <path
           style="fill:#666666;stroke:none;stroke-width:0.341064px;stroke-linecap:butt;stroke-linejoin:bevel;stroke-opacity:1"
           d="m 253.23846,127.93938 1.13952,1.13948 h -87.3125 l 1.13948,-1.13948 z"
           id="path855"
           sodipodi:nodetypes="ccccc" />
        <path
           style="fill:#b3b3b3;stroke:none;stroke-width:0.341064px;stroke-linecap:butt;stroke-linejoin:bevel;stroke-opacity:1"
           d="m 168.20496,127.93938 -1.13948,1.13949 V 41.766363 l 1.13948,1.139494 z"
           id="path857"
           sodipodi:nodetypes="ccccc" />
      </g>
      <g
         id="g867"
         transform="matrix(4.2564669,2.4574725,-2.4574725,4.2564669,-346.54727,-383.3194)"
         style="opacity:0.400641;mix-blend-mode:normal;stroke-width:0.496074">
        <circle
           style="fill:#333333;stroke:none;stroke-width:2.0086;stroke-linejoin:bevel;stop-color:#000000"
           id="path861"
           cx="136.77742"
           cy="23.463844"
           r="0.71058792" />
        <rect
           style="fill:#999999;stroke:none;stroke-width:2.0086;stroke-linejoin:bevel;stop-color:#000000"
           id="rect863"
           width="0.15869127"
           height="1.2361215"
           x="136.69807"
           y="22.845783" />
        <rect
           style="fill:#999999;stroke:none;stroke-width:2.0086;stroke-linejoin:bevel;stop-color:#000000"
           id="rect869"
           width="0.15869127"
           height="1.2361215"
           x="-23.54319"
           y="136.15936"
           transform="rotate(-90)" />
      </g>
      <path
         style="opacity:0.0480226;fill:#cccccc;stroke:none;stroke-width:0.341064px;stroke-linecap:butt;stroke-linejoin:miter;stroke-opacity:1;filter:url(#filter1504)"
         d="m 205.42169,66.441533 c -5.97506,-3.628861 -10.84578,-1.040596 -14.43256,3.741774 -0.45357,0.604761 -1.26554,0.927473 -1.60361,1.603616 -0.15937,0.318738 0.25198,0.817094 0,1.069078 -0.28173,0.281728 -0.8909,0.178181 -1.06908,0.53454 -1.81531,3.630618 5.81427,8.355661 6.94901,11.759859 0.62905,1.887146 -0.3881,4.473995 0,6.414468 0.34597,1.729896 3.69418,5.848204 5.34539,6.949009 0.14825,0.09884 0.40854,-0.125992 0.53454,0 0.12599,0.125992 -0.17818,0.534537 0,0.534537 0.17818,0 0,-0.356359 0,-0.534537 0,-0.8909 0,-1.781797 0,-2.672697 0,-2.083466 1.53629,-1.936191 2.13815,-3.741772 0.29268,-0.878027 1.73503,-3.33865 2.6727,-4.276314 0.30982,-0.309817 1.82833,-0.759259 2.13815,-1.069078 0.25199,-0.251984 -0.15937,-0.75034 0,-1.069079 0.57815,-1.156297 1.25052,-1.79484 1.60362,-3.207234 0.0958,-0.383058 -0.21435,-1.282086 0,-1.603615 1.24417,-1.866252 0.94294,-1.759744 1.60362,-3.741775 1.17454,-3.523628 4.21451,-4.93445 2.13815,-9.087162 -0.15937,-0.318738 0.25199,-0.817094 0,-1.069078 -0.53174,-0.531744 -6.98927,-0.53454 -8.01808,-0.53454 z"
         id="path1480" />
      <path
         style="opacity:0.0480226;fill:#cccccc;stroke:none;stroke-width:0.34094;stroke-linecap:butt;stroke-linejoin:miter;stroke-miterlimit:4;stroke-dasharray:none;stroke-opacity:1;filter:url(#filter1539)"
         d="m 205.42169,66.441533 c -5.97506,-3.628861 -10.84578,-1.040596 -14.43256,3.741774 -0.45357,0.604761 -1.26554,0.927473 -1.60361,1.603616 -0.15937,0.318738 0.25198,0.817094 0,1.069078 -0.28173,0.281728 -0.8909,0.178181 -1.06908,0.53454 -1.81531,3.630618 5.81427,8.355661 6.94901,11.759859 0.62905,1.887146 -0.3881,4.473995 0,6.414468 0.34597,1.729896 3.69418,5.848204 5.34539,6.949009 0.14825,0.09884 0.40854,-0.125992 0.53454,0 0.12599,0.125992 -0.17818,0.534537 0,0.534537 0.17818,0 0,-0.356359 0,-0.534537 0,-0.8909 0,-1.781797 0,-2.672697 0,-2.083466 1.53629,-1.936191 2.13815,-3.741772 0.29268,-0.878027 1.73503,-3.33865 2.6727,-4.276314 0.30982,-0.309817 1.82833,-0.759259 2.13815,-1.069078 0.25199,-0.251984 -0.15937,-0.75034 0,-1.069079 0.57815,-1.156297 1.25052,-1.79484 1.60362,-3.207234 0.0958,-0.383058 -0.21435,-1.282086 0,-1.603615 1.24417,-1.866252 0.94294,-1.759744 1.60362,-3.741775 1.17454,-3.523628 4.21451,-4.93445 2.13815,-9.087162 -0.15937,-0.318738 0.25199,-0.817094 0,-1.069078 -0.53174,-0.531744 -6.98927,-0.53454 -8.01808,-0.53454 z"
         id="path1527"
         transform="matrix(0.32109663,0.49626604,-1.198349,0.13297408,244.02012,-12.182657)" />
      <path
         style="opacity:0.02259887;fill:#cccccc;stroke:none;stroke-width:0.34094;stroke-linecap:butt;stroke-linejoin:miter;stroke-miterlimit:4;stroke-dasharray:none;stroke-opacity:1;filter:url(#filter1535)"
         d="m 205.42169,66.441533 c -5.97506,-3.628861 -10.84578,-1.040596 -14.43256,3.741774 -0.45357,0.604761 -1.26554,0.927473 -1.60361,1.603616 -0.15937,0.318738 0.25198,0.817094 0,1.069078 -0.28173,0.281728 -0.8909,0.178181 -1.06908,0.53454 -1.81531,3.630618 5.81427,8.355661 6.94901,11.759859 0.62905,1.887146 -0.3881,4.473995 0,6.414468 0.34597,1.729896 3.69418,5.848204 5.34539,6.949009 0.14825,0.09884 0.40854,-0.125992 0.53454,0 0.12599,0.125992 -0.17818,0.534537 0,0.534537 0.17818,0 0,-0.356359 0,-0.534537 0,-0.8909 0,-1.781797 0,-2.672697 0,-2.083466 1.53629,-1.936191 2.13815,-3.741772 0.29268,-0.878027 1.73503,-3.33865 2.6727,-4.276314 0.30982,-0.309817 1.82833,-0.759259 2.13815,-1.069078 0.25199,-0.251984 -0.15937,-0.75034 0,-1.069079 0.57815,-1.156297 1.25052,-1.79484 1.60362,-3.207234 0.0958,-0.383058 -0.21435,-1.282086 0,-1.603615 1.24417,-1.866252 0.94294,-1.759744 1.60362,-3.741775 1.17454,-3.523628 4.21451,-4.93445 2.13815,-9.087162 -0.15937,-0.318738 0.25199,-0.817094 0,-1.069078 -0.53174,-0.531744 -6.98927,-0.53454 -8.01808,-0.53454 z"
         id="path1529"
         transform="matrix(0.14190942,0.57379852,-1.1762957,-0.26467106,280.84601,-14.093049)" />
      <g
         id="g905"
         transform="matrix(4.2564669,2.4574725,-2.4574725,4.2564669,-281.06289,-383.3194)"
         style="opacity:0.400641;mix-blend-mode:normal;stroke-width:0.496074">
        <circle
           style="fill:#333333;stroke:none;stroke-width:2.0086;stroke-linejoin:bevel;stop-color:#000000"
           id="circle899"
           cx="136.77742"
           cy="23.463844"
           r="0.71058792" />
        <rect
           style="fill:#999999;stroke:none;stroke-width:2.0086;stroke-linejoin:bevel;stop-color:#000000"
           id="rect901"
           width="0.15869127"
           height="1.2361215"
           x="136.69807"
           y="22.845783" />
        <rect
           style="fill:#999999;stroke:none;stroke-width:2.0086;stroke-linejoin:bevel;stop-color:#000000"
           id="rect903"
           width="0.15869127"
           height="1.2361215"
           x="-23.54319"
           y="136.15936"
           transform="rotate(-90)" />
      </g>
      <g
         id="g913"
         transform="matrix(4.2564669,2.4574725,-2.4574725,4.2564669,-346.54727,-317.83502)"
         style="opacity:0.400641;mix-blend-mode:normal;stroke-width:0.496074">
        <circle
           style="fill:#333333;stroke:none;stroke-width:2.0086;stroke-linejoin:bevel;stop-color:#000000"
           id="circle907"
           cx="136.77742"
           cy="23.463844"
           r="0.71058792" />
        <rect
           style="fill:#999999;stroke:none;stroke-width:2.0086;stroke-linejoin:bevel;stop-color:#000000"
           id="rect909"
           width="0.15869127"
           height="1.2361215"
           x="136.69807"
           y="22.845783" />
        <rect
           style="fill:#999999;stroke:none;stroke-width:2.0086;stroke-linejoin:bevel;stop-color:#000000"
           id="rect911"
           width="0.15869127"
           height="1.2361215"
           x="-23.54319"
           y="136.15936"
           transform="rotate(-90)" />
      </g>
      <g
         id="g921"
         transform="matrix(4.2564669,2.4574725,-2.4574725,4.2564669,-281.06289,-317.83502)"
         style="opacity:0.400641;mix-blend-mode:normal;stroke-width:0.496074">
        <circle
           style="fill:#333333;stroke:none;stroke-width:2.0086;stroke-linejoin:bevel;stop-color:#000000"
           id="circle915"
           cx="136.77742"
           cy="23.463844"
           r="0.71058792" />
        <rect
           style="fill:#999999;stroke:none;stroke-width:2.0086;stroke-linejoin:bevel;stop-color:#000000"
           id="rect917"
           width="0.15869127"
           height="1.2361215"
           x="136.69807"
           y="22.845783" />
        <rect
           style="fill:#999999;stroke:none;stroke-width:2.0086;stroke-linejoin:bevel;stop-color:#000000"
           id="rect919"
           width="0.15869127"
           height="1.2361215"
           x="-23.54319"
           y="136.15936"
           transform="rotate(-90)" />
      </g>
      <g
         id="g929"
         transform="matrix(2.4574722,4.2564671,-4.2564671,2.4574722,-36.44596,-587.1699)"
         style="opacity:0.400641;mix-blend-mode:normal;stroke-width:0.496074">
        <circle
           style="fill:#333333;stroke:none;stroke-width:2.0086;stroke-linejoin:bevel;stop-color:#000000"
           id="circle923"
           cx="136.77742"
           cy="23.463844"
           r="0.71058792" />
        <rect
           style="fill:#999999;stroke:none;stroke-width:2.0086;stroke-linejoin:bevel;stop-color:#000000"
           id="rect925"
           width="0.15869127"
           height="1.2361215"
           x="136.69807"
           y="22.845783" />
        <rect
           style="fill:#999999;stroke:none;stroke-width:2.0086;stroke-linejoin:bevel;stop-color:#000000"
           id="rect927"
           width="0.15869127"
           height="1.2361215"
           x="-23.54319"
           y="136.15936"
           transform="rotate(-90)" />
      </g>
      <g
         id="g937"
         transform="matrix(4.7474721,-1.2720811,1.2720811,4.7474721,-457.5591,115.27846)"
         style="opacity:0.400641;mix-blend-mode:normal;stroke-width:0.496074">
        <circle
           style="fill:#333333;stroke:none;stroke-width:2.0086;stroke-linejoin:bevel;stop-color:#000000"
           id="circle931"
           cx="136.77742"
           cy="23.463844"
           r="0.71058792" />
        <rect
           style="fill:#999999;stroke:none;stroke-width:2.0086;stroke-linejoin:bevel;stop-color:#000000"
           id="rect933"
           width="0.15869127"
           height="1.2361215"
           x="136.69807"
           y="22.845783" />
        <rect
           style="fill:#999999;stroke:none;stroke-width:2.0086;stroke-linejoin:bevel;stop-color:#000000"
           id="rect935"
           width="0.15869127"
           height="1.2361215"
           x="-23.54319"
           y="136.15936"
           transform="rotate(-90)" />
      </g>
      <g
         id="g945"
         transform="matrix(2.4574722,4.2564671,-4.2564671,2.4574722,-36.44596,-521.68552)"
         style="opacity:0.400641;mix-blend-mode:normal;stroke-width:0.496074">
        <circle
           style="fill:#333333;stroke:none;stroke-width:2.0086;stroke-linejoin:bevel;stop-color:#000000"
           id="circle939"
           cx="136.77742"
           cy="23.463844"
           r="0.71058792" />
        <rect
           style="fill:#999999;stroke:none;stroke-width:2.0086;stroke-linejoin:bevel;stop-color:#000000"
           id="rect941"
           width="0.15869127"
           height="1.2361215"
           x="136.69807"
           y="22.845783" />
        <rect
           style="fill:#999999;stroke:none;stroke-width:2.0086;stroke-linejoin:bevel;stop-color:#000000"
           id="rect943"
           width="0.15869127"
           height="1.2361215"
           x="-23.54319"
           y="136.15936"
           transform="rotate(-90)" />
      </g>
      <g
         id="g953"
         transform="matrix(4.7474721,-1.2720811,1.2720811,4.7474721,-457.5591,180.76284)"
         style="opacity:0.400641;mix-blend-mode:normal;stroke-width:0.496074">
        <circle
           style="fill:#333333;stroke:none;stroke-width:2.0086;stroke-linejoin:bevel;stop-color:#000000"
           id="circle947"
           cx="136.77742"
           cy="23.463844"
           r="0.71058792" />
        <rect
           style="fill:#999999;stroke:none;stroke-width:2.0086;stroke-linejoin:bevel;stop-color:#000000"
           id="rect949"
           width="0.15869127"
           height="1.2361215"
           x="136.69807"
           y="22.845783" />
        <rect
           style="fill:#999999;stroke:none;stroke-width:2.0086;stroke-linejoin:bevel;stop-color:#000000"
           id="rect951"
           width="0.15869127"
           height="1.2361215"
           x="-23.54319"
           y="136.15936"
           transform="rotate(-90)" />
      </g>
      <g
         id="g961"
         transform="matrix(4.8789583,0.59367249,-0.59367249,4.8789583,-475.42196,-121.17156)"
         style="opacity:0.400641;mix-blend-mode:normal;stroke-width:0.496074">
        <circle
           style="fill:#333333;stroke:none;stroke-width:2.0086;stroke-linejoin:bevel;stop-color:#000000"
           id="circle955"
           cx="136.77742"
           cy="23.463844"
           r="0.71058792" />
        <rect
           style="fill:#999999;stroke:none;stroke-width:2.0086;stroke-linejoin:bevel;stop-color:#000000"
           id="rect957"
           width="0.15869127"
           height="1.2361215"
           x="136.69807"
           y="22.845783" />
        <rect
           style="fill:#999999;stroke:none;stroke-width:2.0086;stroke-linejoin:bevel;stop-color:#000000"
           id="rect959"
           width="0.15869127"
           height="1.2361215"
           x="-23.54319"
           y="136.15936"
           transform="rotate(-90)" />
      </g>
      <g
         id="g969"
         transform="matrix(2.3998362,4.2892269,-4.2892269,2.3998362,-49.622112,-546.64209)"
         style="opacity:0.400641;mix-blend-mode:normal;stroke-width:0.496074">
        <circle
           style="fill:#333333;stroke:none;stroke-width:2.0086;stroke-linejoin:bevel;stop-color:#000000"
           id="circle963"
           cx="136.77742"
           cy="23.463844"
           r="0.71058792" />
        <rect
           style="fill:#999999;stroke:none;stroke-width:2.0086;stroke-linejoin:bevel;stop-color:#000000"
           id="rect965"
           width="0.15869127"
           height="1.2361215"
           x="136.69807"
           y="22.845783" />
        <rect
           style="fill:#999999;stroke:none;stroke-width:2.0086;stroke-linejoin:bevel;stop-color:#000000"
           id="rect967"
           width="0.15869127"
           height="1.2361215"
           x="-23.54319"
           y="136.15936"
           transform="rotate(-90)" />
      </g>
      <g
         id="g977"
         transform="matrix(4.8789583,0.59367249,-0.59367249,4.8789583,-409.93757,-121.17156)"
         style="opacity:0.400641;mix-blend-mode:normal;stroke-width:0.496074">
        <circle
           style="fill:#333333;stroke:none;stroke-width:2.0086;stroke-linejoin:bevel;stop-color:#000000"
           id="circle971"
           cx="136.77742"
           cy="23.463844"
           r="0.71058792" />
        <rect
           style="fill:#999999;stroke:none;stroke-width:2.0086;stroke-linejoin:bevel;stop-color:#000000"
           id="rect973"
           width="0.15869127"
           height="1.2361215"
           x="136.69807"
           y="22.845783" />
        <rect
           style="fill:#999999;stroke:none;stroke-width:2.0086;stroke-linejoin:bevel;stop-color:#000000"
           id="rect975"
           width="0.15869127"
           height="1.2361215"
           x="-23.54319"
           y="136.15936"
           transform="rotate(-90)" />
      </g>
      <g
         id="g985"
         transform="matrix(2.3998362,4.2892269,-4.2892269,2.3998362,15.86228,-546.64209)"
         style="opacity:0.400641;mix-blend-mode:normal;stroke-width:0.496074">
        <circle
           style="fill:#333333;stroke:none;stroke-width:2.0086;stroke-linejoin:bevel;stop-color:#000000"
           id="circle979"
           cx="136.77742"
           cy="23.463844"
           r="0.71058792" />
        <rect
           style="fill:#999999;stroke:none;stroke-width:2.0086;stroke-linejoin:bevel;stop-color:#000000"
           id="rect981"
           width="0.15869127"
           height="1.2361215"
           x="136.69807"
           y="22.845783" />
        <rect
           style="fill:#999999;stroke:none;stroke-width:2.0086;stroke-linejoin:bevel;stop-color:#000000"
           id="rect983"
           width="0.15869127"
           height="1.2361215"
           x="-23.54319"
           y="136.15936"
           transform="rotate(-90)" />
      </g>
    </g>
  </g>
</svg>
